<svg width="176" height="116" viewBox="0 0 176 116" fill="none" xmlns="http://www.w3.org/2000/svg">
<path d="M19.3636 93.8182C16.0227 93.8182 13.0682 93.2727 10.5 92.1818C7.95455 91.0682 5.95455 89.3864 4.5 87.1364C3.04545 84.8864 2.31818 82.0227 2.31818 78.5455C2.31818 75.6818 2.80682 73.2386 3.78409 71.2159C4.76136 69.1705 6.125 67.5 7.875 66.2045C9.625 64.9091 11.6591 63.9205 13.9773 63.2386C16.3182 62.5568 18.8409 62.1136 21.5455 61.9091C24.4773 61.6818 26.8295 61.4091 28.6023 61.0909C30.3977 60.75 31.6932 60.2841 32.4886 59.6932C33.2841 59.0795 33.6818 58.2727 33.6818 57.2727V57.1364C33.6818 55.7727 33.1591 54.7273 32.1136 54C31.0682 53.2727 29.7273 52.9091 28.0909 52.9091C26.2955 52.9091 24.8295 53.3068 23.6932 54.1023C22.5795 54.875 21.9091 56.0682 21.6818 57.6818H4.36364C4.59091 54.5 5.60227 51.5682 7.39773 48.8864C9.21591 46.1818 11.8636 44.0227 15.3409 42.4091C18.8182 40.7727 23.1591 39.9545 28.3636 39.9545C32.1136 39.9545 35.4773 40.3977 38.4545 41.2841C41.4318 42.1477 43.9659 43.3636 46.0568 44.9318C48.1477 46.4773 49.7386 48.2955 50.8295 50.3864C51.9432 52.4545 52.5 54.7045 52.5 57.1364V93H34.9091V85.6364H34.5C33.4545 87.5909 32.1818 89.1705 30.6818 90.375C29.2045 91.5795 27.5114 92.4545 25.6023 93C23.7159 93.5455 21.6364 93.8182 19.3636 93.8182ZM25.5 81.9545C26.9318 81.9545 28.2727 81.6591 29.5227 81.0682C30.7955 80.4773 31.8295 79.625 32.625 78.5114C33.4205 77.3977 33.8182 76.0455 33.8182 74.4545V70.0909C33.3182 70.2955 32.7841 70.4886 32.2159 70.6705C31.6705 70.8523 31.0795 71.0227 30.4432 71.1818C29.8295 71.3409 29.1705 71.4886 28.4659 71.625C27.7841 71.7614 27.0682 71.8864 26.3182 72C24.8636 72.2273 23.6705 72.6023 22.7386 73.125C21.8295 73.625 21.1477 74.25 20.6932 75C20.2614 75.7273 20.0455 76.5455 20.0455 77.4545C20.0455 78.9091 20.5568 80.0227 21.5795 80.7955C22.6023 81.5682 23.9091 81.9545 25.5 81.9545Z" fill="black"/>
<path d="M73.5909 23.1818V93H54.7727V23.1818H73.5909Z" fill="black"/>
<path d="M76.7727 93V40.6364H95.0455V50.5909H95.5909C96.5455 46.9091 98.0568 44.2159 100.125 42.5114C102.216 40.8068 104.659 39.9545 107.455 39.9545C108.273 39.9545 109.08 40.0227 109.875 40.1591C110.693 40.2727 111.477 40.4432 112.227 40.6705V56.7273C111.295 56.4091 110.148 56.1705 108.784 56.0114C107.42 55.8523 106.25 55.7727 105.273 55.7727C103.432 55.7727 101.773 56.1932 100.295 57.0341C98.8409 57.8523 97.6932 59.0114 96.8523 60.5114C96.0114 61.9886 95.5909 63.7273 95.5909 65.7273V93H76.7727Z" fill="black"/>
<path d="M149 40.6364V54.2727H114.5V40.6364H149ZM121.182 28.0909H140V76.1591C140 76.8864 140.125 77.5 140.375 78C140.625 78.4773 141.011 78.8409 141.534 79.0909C142.057 79.3182 142.727 79.4318 143.545 79.4318C144.114 79.4318 144.773 79.3636 145.523 79.2273C146.295 79.0909 146.864 78.9773 147.227 78.8864L149.955 92.1136C149.114 92.3636 147.909 92.6705 146.341 93.0341C144.795 93.3977 142.955 93.6364 140.818 93.75C136.5 93.9773 132.875 93.5341 129.943 92.4205C127.011 91.2841 124.807 89.5 123.33 87.0682C121.852 84.6364 121.136 81.5909 121.182 77.9318V28.0909Z" fill="black"/>
<path d="M161 94.0909C158.364 94.0909 156.102 93.1705 154.216 91.3295C152.352 89.4659 151.432 87.2045 151.455 84.5455C151.432 81.9545 152.352 79.7386 154.216 77.8977C156.102 76.0568 158.364 75.1364 161 75.1364C163.5 75.1364 165.705 76.0568 167.614 77.8977C169.545 79.7386 170.523 81.9545 170.545 84.5455C170.523 86.3182 170.057 87.9318 169.148 89.3864C168.261 90.8182 167.102 91.9659 165.67 92.8295C164.239 93.6705 162.682 94.0909 161 94.0909Z" fill="black"/>
</svg>
