<svg width="330" height="115" viewBox="0 0 330 115" fill="none" xmlns="http://www.w3.org/2000/svg">
<path d="M24.864 45.312C29.216 45.312 33.216 46.048 36.864 47.52C40.512 48.992 43.392 51.008 45.504 53.568C47.616 56.128 48.672 58.912 48.672 61.92V94.56C48.672 95.008 48.544 95.36 48.288 95.616C48.032 95.872 47.68 96 47.232 96H32.064C31.616 96 31.264 95.872 31.008 95.616C30.752 95.36 30.624 95.008 30.624 94.56V91.2C30.624 90.944 30.56 90.816 30.432 90.816C30.368 90.752 30.272 90.816 30.144 91.008C29.056 92.992 27.552 94.464 25.632 95.424C23.712 96.32 21.184 96.768 18.048 96.768C12.8 96.768 8.672 95.584 5.664 93.216C2.656 90.784 1.152 87.264 1.152 82.656C1.152 77.792 2.848 74.048 6.24 71.424C9.696 68.8 14.688 67.488 21.216 67.488H30.144C30.464 67.488 30.624 67.328 30.624 67.008V65.28C30.624 63.936 30.112 62.848 29.088 62.016C28.128 61.184 26.816 60.768 25.152 60.768C24 60.768 22.976 60.96 22.08 61.344C21.184 61.728 20.544 62.24 20.16 62.88C19.904 63.328 19.648 63.648 19.392 63.84C19.2 63.968 18.912 64 18.528 63.936L3.072 62.016C2.176 61.888 1.728 61.504 1.728 60.864C1.984 57.984 3.136 55.36 5.184 52.992C7.232 50.624 9.952 48.768 13.344 47.424C16.8 46.016 20.64 45.312 24.864 45.312ZM23.616 84.288C25.664 84.288 27.328 83.744 28.608 82.656C29.952 81.568 30.624 80.096 30.624 78.24V76.992C30.624 76.672 30.464 76.512 30.144 76.512H25.344C21.312 76.512 19.296 77.824 19.296 80.448C19.296 81.6 19.648 82.528 20.352 83.232C21.12 83.936 22.208 84.288 23.616 84.288ZM54.5318 96C54.0838 96 53.7318 95.872 53.4758 95.616C53.2198 95.36 53.0918 95.008 53.0918 94.56V30.24C53.0918 29.792 53.2198 29.44 53.4758 29.184C53.7318 28.928 54.0838 28.8 54.5318 28.8H69.6998C70.1478 28.8 70.4998 28.928 70.7558 29.184C71.0118 29.44 71.1398 29.792 71.1398 30.24V94.56C71.1398 95.008 71.0118 95.36 70.7558 95.616C70.4998 95.872 70.1478 96 69.6998 96H54.5318ZM103.579 45.408C105.755 45.408 107.483 45.824 108.763 46.656C109.339 46.976 109.563 47.584 109.435 48.48L107.131 63.264C107.067 63.776 106.875 64.096 106.555 64.224C106.299 64.352 105.915 64.352 105.403 64.224C104.251 63.968 103.227 63.84 102.331 63.84C101.371 63.84 100.475 63.936 99.6428 64.128C97.9788 64.448 96.5388 65.152 95.3228 66.24C94.1708 67.264 93.5948 68.672 93.5948 70.464V94.56C93.5948 95.008 93.4668 95.36 93.2108 95.616C92.9548 95.872 92.6028 96 92.1548 96H76.9868C76.5388 96 76.1868 95.872 75.9308 95.616C75.6748 95.36 75.5468 95.008 75.5468 94.56V47.52C75.5468 47.072 75.6748 46.72 75.9308 46.464C76.1868 46.208 76.5388 46.08 76.9868 46.08H92.1548C92.6028 46.08 92.9548 46.208 93.2108 46.464C93.4668 46.72 93.5948 47.072 93.5948 47.52V49.824C93.5948 50.016 93.6588 50.144 93.7868 50.208C93.9148 50.272 94.0108 50.24 94.0748 50.112C96.5068 46.976 99.6748 45.408 103.579 45.408ZM144.329 59.04C144.329 59.488 144.201 59.84 143.945 60.096C143.689 60.352 143.337 60.48 142.889 60.48H134.921C134.601 60.48 134.441 60.64 134.441 60.96V76.032C134.441 79.232 135.593 80.832 137.897 80.832H141.449C141.897 80.832 142.249 80.96 142.505 81.216C142.761 81.472 142.889 81.824 142.889 82.272V94.56C142.889 95.456 142.409 95.968 141.449 96.096C138.953 96.288 136.553 96.384 134.249 96.384C128.425 96.384 124.137 95.488 121.385 93.696C118.633 91.904 117.225 88.512 117.161 83.52V60.96C117.161 60.64 117.001 60.48 116.681 60.48H111.497C111.049 60.48 110.697 60.352 110.441 60.096C110.185 59.84 110.057 59.488 110.057 59.04V47.52C110.057 47.072 110.185 46.72 110.441 46.464C110.697 46.208 111.049 46.08 111.497 46.08H116.681C117.001 46.08 117.161 45.92 117.161 45.6V34.08C117.161 33.632 117.289 33.28 117.545 33.024C117.801 32.768 118.153 32.64 118.601 32.64H133.001C133.449 32.64 133.801 32.768 134.057 33.024C134.313 33.28 134.441 33.632 134.441 34.08V45.6C134.441 45.92 134.601 46.08 134.921 46.08H142.889C143.337 46.08 143.689 46.208 143.945 46.464C144.201 46.72 144.329 47.072 144.329 47.52V59.04Z" fill="url(#paint0_linear_98_45)"/>
<path d="M169.864 45.312C174.216 45.312 178.216 46.048 181.864 47.52C185.512 48.992 188.392 51.008 190.504 53.568C192.616 56.128 193.672 58.912 193.672 61.92V94.56C193.672 95.008 193.544 95.36 193.288 95.616C193.032 95.872 192.68 96 192.232 96H177.064C176.616 96 176.264 95.872 176.008 95.616C175.752 95.36 175.624 95.008 175.624 94.56V91.2C175.624 90.944 175.56 90.816 175.432 90.816C175.368 90.752 175.272 90.816 175.144 91.008C174.056 92.992 172.552 94.464 170.632 95.424C168.712 96.32 166.184 96.768 163.048 96.768C157.8 96.768 153.672 95.584 150.664 93.216C147.656 90.784 146.152 87.264 146.152 82.656C146.152 77.792 147.848 74.048 151.24 71.424C154.696 68.8 159.688 67.488 166.216 67.488H175.144C175.464 67.488 175.624 67.328 175.624 67.008V65.28C175.624 63.936 175.112 62.848 174.088 62.016C173.128 61.184 171.816 60.768 170.152 60.768C169 60.768 167.976 60.96 167.08 61.344C166.184 61.728 165.544 62.24 165.16 62.88C164.904 63.328 164.648 63.648 164.392 63.84C164.2 63.968 163.912 64 163.528 63.936L148.072 62.016C147.176 61.888 146.728 61.504 146.728 60.864C146.984 57.984 148.136 55.36 150.184 52.992C152.232 50.624 154.952 48.768 158.344 47.424C161.8 46.016 165.64 45.312 169.864 45.312ZM168.616 84.288C170.664 84.288 172.328 83.744 173.608 82.656C174.952 81.568 175.624 80.096 175.624 78.24V76.992C175.624 76.672 175.464 76.512 175.144 76.512H170.344C166.312 76.512 164.296 77.824 164.296 80.448C164.296 81.6 164.648 82.528 165.352 83.232C166.12 83.936 167.208 84.288 168.616 84.288ZM248.876 60.48C249.836 63.68 250.316 67.264 250.316 71.232C250.316 75.84 249.612 79.936 248.204 83.52C246.668 87.424 244.268 90.624 241.004 93.12C237.74 95.552 233.836 96.768 229.292 96.768C224.62 96.768 221.164 95.296 218.924 92.352C218.796 92.224 218.668 92.192 218.54 92.256C218.412 92.256 218.348 92.352 218.348 92.544V111.84C218.348 112.288 218.22 112.64 217.964 112.896C217.708 113.152 217.356 113.28 216.908 113.28H201.74C201.292 113.28 200.94 113.152 200.684 112.896C200.428 112.64 200.3 112.288 200.3 111.84V47.52C200.3 47.072 200.428 46.72 200.684 46.464C200.94 46.208 201.292 46.08 201.74 46.08H216.908C217.356 46.08 217.708 46.208 217.964 46.464C218.22 46.72 218.348 47.072 218.348 47.52V50.4C218.348 50.592 218.412 50.72 218.54 50.784C218.668 50.848 218.796 50.784 218.924 50.592C221.292 47.072 225.004 45.312 230.06 45.312C234.348 45.312 238.188 46.688 241.58 49.44C245.036 52.128 247.468 55.808 248.876 60.48ZM229.964 78.144C230.924 76.288 231.404 73.888 231.404 70.944C231.404 68.064 230.924 65.728 229.964 63.936C228.812 61.824 227.116 60.768 224.876 60.768C222.636 60.768 220.94 61.856 219.788 64.032C218.828 65.824 218.348 68.128 218.348 70.944C218.348 74.016 218.86 76.48 219.884 78.336C221.036 80.32 222.7 81.312 224.876 81.312C227.18 81.312 228.876 80.256 229.964 78.144ZM304.47 60.48C305.43 63.68 305.91 67.264 305.91 71.232C305.91 75.84 305.206 79.936 303.798 83.52C302.262 87.424 299.862 90.624 296.598 93.12C293.334 95.552 289.43 96.768 284.886 96.768C280.214 96.768 276.758 95.296 274.518 92.352C274.39 92.224 274.262 92.192 274.134 92.256C274.006 92.256 273.942 92.352 273.942 92.544V111.84C273.942 112.288 273.814 112.64 273.558 112.896C273.302 113.152 272.95 113.28 272.502 113.28H257.334C256.886 113.28 256.534 113.152 256.278 112.896C256.022 112.64 255.894 112.288 255.894 111.84V47.52C255.894 47.072 256.022 46.72 256.278 46.464C256.534 46.208 256.886 46.08 257.334 46.08H272.502C272.95 46.08 273.302 46.208 273.558 46.464C273.814 46.72 273.942 47.072 273.942 47.52V50.4C273.942 50.592 274.006 50.72 274.134 50.784C274.262 50.848 274.39 50.784 274.518 50.592C276.886 47.072 280.598 45.312 285.654 45.312C289.942 45.312 293.782 46.688 297.174 49.44C300.63 52.128 303.062 55.808 304.47 60.48ZM285.558 78.144C286.518 76.288 286.998 73.888 286.998 70.944C286.998 68.064 286.518 65.728 285.558 63.936C284.406 61.824 282.71 60.768 280.47 60.768C278.23 60.768 276.534 61.856 275.382 64.032C274.422 65.824 273.942 68.128 273.942 70.944C273.942 74.016 274.454 76.48 275.478 78.336C276.63 80.32 278.294 81.312 280.47 81.312C282.774 81.312 284.47 80.256 285.558 78.144Z" fill="white"/>
<path d="M316 96.768C313.376 96.768 311.2 95.936 309.472 94.272C307.808 92.544 306.976 90.368 306.976 87.744C306.976 85.056 307.808 82.88 309.472 81.216C311.2 79.552 313.376 78.72 316 78.72C318.624 78.72 320.768 79.552 322.432 81.216C324.16 82.88 325.024 85.056 325.024 87.744C325.024 90.304 324.16 92.448 322.432 94.176C320.704 95.904 318.56 96.768 316 96.768Z" fill="url(#paint1_linear_98_45)"/>
<defs>
<linearGradient id="paint0_linear_98_45" x1="0" y1="57.5" x2="147" y2="57.5" gradientUnits="userSpaceOnUse">
<stop stop-color="#FB923C"/>
<stop offset="0.25" stop-color="#F37524"/>
<stop offset="0.5" stop-color="#EA580C"/>
<stop offset="1" stop-color="#C2410C"/>
</linearGradient>
<linearGradient id="paint1_linear_98_45" x1="304" y1="57.5" x2="330" y2="57.5" gradientUnits="userSpaceOnUse">
<stop stop-color="#FB923C"/>
<stop offset="0.25" stop-color="#F37524"/>
<stop offset="0.5" stop-color="#EA580C"/>
<stop offset="1" stop-color="#C2410C"/>
</linearGradient>
</defs>
</svg>
