<svg width="161" height="69" viewBox="0 0 161 69" fill="none" xmlns="http://www.w3.org/2000/svg">
<path d="M23.712 16.512C28.064 16.512 32.064 17.248 35.712 18.72C39.36 20.192 42.24 22.208 44.352 24.768C46.464 27.328 47.52 30.112 47.52 33.12V65.76C47.52 66.208 47.392 66.56 47.136 66.816C46.88 67.072 46.528 67.2 46.08 67.2H30.912C30.464 67.2 30.112 67.072 29.856 66.816C29.6 66.56 29.472 66.208 29.472 65.76V62.4C29.472 62.144 29.408 62.016 29.28 62.016C29.216 61.952 29.12 62.016 28.992 62.208C27.904 64.192 26.4 65.664 24.48 66.624C22.56 67.52 20.032 67.968 16.896 67.968C11.648 67.968 7.52 66.784 4.512 64.416C1.504 61.984 0 58.464 0 53.856C0 48.992 1.696 45.248 5.088 42.624C8.544 40 13.536 38.688 20.064 38.688H28.992C29.312 38.688 29.472 38.528 29.472 38.208V36.48C29.472 35.136 28.96 34.048 27.936 33.216C26.976 32.384 25.664 31.968 24 31.968C22.848 31.968 21.824 32.16 20.928 32.544C20.032 32.928 19.392 33.44 19.008 34.08C18.752 34.528 18.496 34.848 18.24 35.04C18.048 35.168 17.76 35.2 17.376 35.136L1.92 33.216C1.024 33.088 0.576 32.704 0.576 32.064C0.832 29.184 1.984 26.56 4.032 24.192C6.08 21.824 8.8 19.968 12.192 18.624C15.648 17.216 19.488 16.512 23.712 16.512ZM22.464 55.488C24.512 55.488 26.176 54.944 27.456 53.856C28.8 52.768 29.472 51.296 29.472 49.44V48.192C29.472 47.872 29.312 47.712 28.992 47.712H24.192C20.16 47.712 18.144 49.024 18.144 51.648C18.144 52.8 18.496 53.728 19.2 54.432C19.968 55.136 21.056 55.488 22.464 55.488Z" fill="url(#paint0_linear_92_132)"/>
<path d="M52.456 67.2C52.008 67.2 51.656 67.072 51.4 66.816C51.144 66.56 51.016 66.208 51.016 65.76V1.44C51.016 0.992001 51.144 0.640001 51.4 0.384001C51.656 0.128 52.008 0 52.456 0H67.624C68.072 0 68.424 0.128 68.68 0.384001C68.936 0.640001 69.064 0.992001 69.064 1.44V65.76C69.064 66.208 68.936 66.56 68.68 66.816C68.424 67.072 68.072 67.2 67.624 67.2H52.456Z" fill="url(#paint1_linear_92_132)"/>
<path d="M101.048 16.608C103.224 16.608 104.952 17.024 106.232 17.856C106.808 18.176 107.032 18.784 106.904 19.68L104.6 34.464C104.536 34.976 104.344 35.296 104.024 35.424C103.768 35.552 103.384 35.552 102.872 35.424C101.72 35.168 100.696 35.04 99.8 35.04C98.84 35.04 97.944 35.136 97.112 35.328C95.448 35.648 94.008 36.352 92.792 37.44C91.64 38.464 91.064 39.872 91.064 41.664V65.76C91.064 66.208 90.936 66.56 90.68 66.816C90.424 67.072 90.072 67.2 89.624 67.2H74.456C74.008 67.2 73.656 67.072 73.4 66.816C73.144 66.56 73.016 66.208 73.016 65.76V18.72C73.016 18.272 73.144 17.92 73.4 17.664C73.656 17.408 74.008 17.28 74.456 17.28H89.624C90.072 17.28 90.424 17.408 90.68 17.664C90.936 17.92 91.064 18.272 91.064 18.72V21.024C91.064 21.216 91.128 21.344 91.256 21.408C91.384 21.472 91.48 21.44 91.544 21.312C93.976 18.176 97.144 16.608 101.048 16.608Z" fill="url(#paint2_linear_92_132)"/>
<path d="M141.656 30.24C141.656 30.688 141.528 31.04 141.272 31.296C141.016 31.552 140.664 31.68 140.216 31.68H132.248C131.928 31.68 131.768 31.84 131.768 32.16V47.232C131.768 50.432 132.92 52.032 135.224 52.032H138.776C139.224 52.032 139.576 52.16 139.832 52.416C140.088 52.672 140.216 53.024 140.216 53.472V65.76C140.216 66.656 139.736 67.168 138.776 67.296C136.28 67.488 133.88 67.584 131.576 67.584C125.752 67.584 121.464 66.688 118.712 64.896C115.96 63.104 114.552 59.712 114.488 54.72V32.16C114.488 31.84 114.328 31.68 114.008 31.68H108.824C108.376 31.68 108.024 31.552 107.768 31.296C107.512 31.04 107.384 30.688 107.384 30.24V18.72C107.384 18.272 107.512 17.92 107.768 17.664C108.024 17.408 108.376 17.28 108.824 17.28H114.008C114.328 17.28 114.488 17.12 114.488 16.8V5.28C114.488 4.832 114.616 4.48 114.872 4.224C115.128 3.968 115.48 3.84 115.928 3.84H130.328C130.776 3.84 131.128 3.968 131.384 4.224C131.64 4.48 131.768 4.832 131.768 5.28V16.8C131.768 17.12 131.928 17.28 132.248 17.28H140.216C140.664 17.28 141.016 17.408 141.272 17.664C141.528 17.92 141.656 18.272 141.656 18.72V30.24Z" fill="url(#paint3_linear_92_132)"/>
<path d="M151.024 68.048C148.4 68.048 146.224 67.216 144.496 65.552C142.832 63.824 142 61.648 142 59.024C142 56.336 142.832 54.16 144.496 52.496C146.224 50.832 148.4 50 151.024 50C153.648 50 155.792 50.832 157.456 52.496C159.184 54.16 160.048 56.336 160.048 59.024C160.048 61.584 159.184 63.728 157.456 65.456C155.728 67.184 153.584 68.048 151.024 68.048Z" fill="url(#paint4_linear_92_132)"/>
<defs>
<linearGradient id="paint0_linear_92_132" x1="0" y1="33.984" x2="141.656" y2="33.984" gradientUnits="userSpaceOnUse">
<stop stop-color="#FB923C"/>
<stop offset="0.25" stop-color="#F37524"/>
<stop offset="0.5" stop-color="#EA580C"/>
<stop offset="1" stop-color="#C2410C"/>
</linearGradient>
<linearGradient id="paint1_linear_92_132" x1="0" y1="33.984" x2="141.656" y2="33.984" gradientUnits="userSpaceOnUse">
<stop stop-color="#FB923C"/>
<stop offset="0.25" stop-color="#F37524"/>
<stop offset="0.5" stop-color="#EA580C"/>
<stop offset="1" stop-color="#C2410C"/>
</linearGradient>
<linearGradient id="paint2_linear_92_132" x1="0" y1="33.984" x2="141.656" y2="33.984" gradientUnits="userSpaceOnUse">
<stop stop-color="#FB923C"/>
<stop offset="0.25" stop-color="#F37524"/>
<stop offset="0.5" stop-color="#EA580C"/>
<stop offset="1" stop-color="#C2410C"/>
</linearGradient>
<linearGradient id="paint3_linear_92_132" x1="0" y1="33.984" x2="141.656" y2="33.984" gradientUnits="userSpaceOnUse">
<stop stop-color="#FB923C"/>
<stop offset="0.25" stop-color="#F37524"/>
<stop offset="0.5" stop-color="#EA580C"/>
<stop offset="1" stop-color="#C2410C"/>
</linearGradient>
<linearGradient id="paint4_linear_92_132" x1="142" y1="59.024" x2="160.048" y2="59.024" gradientUnits="userSpaceOnUse">
<stop stop-color="#FB923C"/>
<stop offset="0.25" stop-color="#F37524"/>
<stop offset="0.5" stop-color="#EA580C"/>
<stop offset="1" stop-color="#C2410C"/>
</linearGradient>
</defs>
</svg>
