<svg width="128" height="97" viewBox="0 0 128 97" fill="none" xmlns="http://www.w3.org/2000/svg">
<path d="M44.7907 0C53.0114 0 60.5671 1.38744 67.458 4.16231C74.3489 6.93719 79.789 10.7376 83.7785 15.5634C87.768 20.3893 89.7627 25.6374 89.7627 31.3078V92.8377C89.7627 93.6822 89.5209 94.3458 89.0373 94.8284C88.5537 95.3109 87.8888 95.5522 87.0426 95.5522H58.3911C57.5448 95.5522 56.8799 95.3109 56.3963 94.8284C55.9128 94.3458 55.671 93.6822 55.671 92.8377V86.5037C55.671 86.0211 55.5501 85.7798 55.3083 85.7798C55.1874 85.6592 55.0061 85.7798 54.7643 86.1418C52.7091 89.8818 49.8682 92.6567 46.2414 94.4664C42.6146 96.1555 37.8393 97 31.9156 97C22.0024 97 14.2049 94.768 8.52292 90.3041C2.84097 85.7195 0 79.084 0 70.3974C0 61.2282 3.20365 54.1704 9.61095 49.2239C16.1391 44.2774 25.5688 41.8041 37.8998 41.8041H54.7643C55.3688 41.8041 55.671 41.5025 55.671 40.8993V37.6418C55.671 35.1082 54.7039 33.0572 52.7696 31.4888C50.9562 29.9204 48.4779 29.1362 45.3347 29.1362C43.1586 29.1362 41.2243 29.4981 39.5318 30.222C37.8393 30.9459 36.6304 31.9111 35.9051 33.1175C35.4215 33.9621 34.9379 34.5653 34.4544 34.9272C34.0917 35.1685 33.5477 35.2289 32.8223 35.1082L3.62677 31.4888C1.93428 31.2475 1.08803 30.5236 1.08803 29.3172C1.5716 23.8881 3.74767 18.9415 7.61623 14.4776C11.4848 10.0137 16.6227 6.51492 23.03 3.98134C29.5582 1.32711 36.8118 0 44.7907 0ZM42.4333 73.4739C46.3018 73.4739 49.445 72.4484 51.8629 70.3974C54.4016 68.3464 55.671 65.5715 55.671 62.0728V59.7201C55.671 59.1169 55.3688 58.8153 54.7643 58.8153H45.6974C38.0811 58.8153 34.273 61.2886 34.273 66.2351C34.273 68.4067 34.9379 70.1561 36.2677 71.4832C37.7185 72.8103 39.7736 73.4739 42.4333 73.4739Z" fill="url(#paint0_linear_93_162)"/>
<path d="M110.954 95.5522C105.998 95.5522 101.887 93.9838 98.6231 90.847C95.4799 87.5895 93.9083 83.4876 93.9083 78.541C93.9083 73.4739 95.4799 69.3719 98.6231 66.2351C101.887 63.0983 105.998 61.5298 110.954 61.5298C115.911 61.5298 119.961 63.0983 123.104 66.2351C126.368 69.3719 128 73.4739 128 78.541C128 83.3669 126.368 87.4086 123.104 90.666C119.84 93.9235 115.79 95.5522 110.954 95.5522Z" fill="url(#paint1_linear_93_162)"/>
<defs>
<linearGradient id="paint0_linear_93_162" x1="0" y1="48.5" x2="128" y2="48.5" gradientUnits="userSpaceOnUse">
<stop stop-color="#FB923C"/>
<stop offset="0.25" stop-color="#F37524"/>
<stop offset="0.5" stop-color="#EA580C"/>
<stop offset="1" stop-color="#C2410C"/>
</linearGradient>
<linearGradient id="paint1_linear_93_162" x1="0" y1="48.5" x2="128" y2="48.5" gradientUnits="userSpaceOnUse">
<stop stop-color="#FB923C"/>
<stop offset="0.25" stop-color="#F37524"/>
<stop offset="0.5" stop-color="#EA580C"/>
<stop offset="1" stop-color="#C2410C"/>
</linearGradient>
</defs>
</svg>
