<svg width="400" height="400" viewBox="0 0 400 400" fill="none" xmlns="http://www.w3.org/2000/svg">
<g filter="url(#filter0_i_29_30)">
<circle cx="359" cy="349" r="41" fill="url(#paint0_linear_29_30)"/>
<path d="M2.1662 315.554L132.524 89.7676C136.354 83.1348 144.917 80.7056 150.918 85.4648C181.868 110.011 181.065 146.845 175.863 164.879C175.587 165.838 175.18 166.741 174.682 167.605L159.014 194.819C153.64 204.152 160.377 215.805 171.146 215.805H216.431C224.163 215.805 230.431 222.073 230.431 229.805V259.305C230.431 280.505 209.431 288.138 198.931 289.305H110.446C105.481 289.305 100.887 291.935 98.3731 296.217L49.9833 378.644C46.2843 384.944 38.2741 387.447 32.1754 383.424C1.50499 363.19 -1.96301 334.049 0.740318 319.272C0.981534 317.953 1.49599 316.715 2.1662 315.554Z" fill="url(#paint1_linear_29_30)"/>
<path d="M271.35 43.8477L359.003 262.278C361.965 269.659 358.176 278.145 350.412 279.866C298.64 291.346 270.752 257.048 262.931 236.805L178.616 32.3751C175.728 25.3741 178.926 17.2188 186.165 14.9957C230.86 1.27079 260.277 26.0481 270.347 41.8625C270.749 42.4935 271.071 43.1534 271.35 43.8477Z" fill="url(#paint2_linear_29_30)"/>
</g>
<defs>
<filter id="filter0_i_29_30" x="0" y="0" width="400" height="404" filterUnits="userSpaceOnUse" color-interpolation-filters="sRGB">
<feFlood flood-opacity="0" result="BackgroundImageFix"/>
<feBlend mode="normal" in="SourceGraphic" in2="BackgroundImageFix" result="shape"/>
<feColorMatrix in="SourceAlpha" type="matrix" values="0 0 0 0 0 0 0 0 0 0 0 0 0 0 0 0 0 0 127 0" result="hardAlpha"/>
<feOffset dy="4"/>
<feGaussianBlur stdDeviation="2"/>
<feComposite in2="hardAlpha" operator="arithmetic" k2="-1" k3="1"/>
<feColorMatrix type="matrix" values="0 0 0 0 0 0 0 0 0 0 0 0 0 0 0 0 0 0 0.25 0"/>
<feBlend mode="normal" in2="shape" result="effect1_innerShadow_29_30"/>
</filter>
<linearGradient id="paint0_linear_29_30" x1="359" y1="308" x2="359" y2="390" gradientUnits="userSpaceOnUse">
<stop stop-color="#3B82F6"/>
<stop offset="1" stop-color="#1E40AF"/>
</linearGradient>
<linearGradient id="paint1_linear_29_30" x1="115.216" y1="77.8045" x2="115.216" y2="389.805" gradientUnits="userSpaceOnUse">
<stop stop-color="#3B82F6"/>
<stop offset="1" stop-color="#1E40AF"/>
</linearGradient>
<linearGradient id="paint2_linear_29_30" x1="268.931" y1="11" x2="268.931" y2="282.161" gradientUnits="userSpaceOnUse">
<stop stop-color="#3B82F6"/>
<stop offset="1" stop-color="#1E40AF"/>
</linearGradient>
</defs>
</svg>
