<svg width="400" height="400" viewBox="0 0 400 400" fill="none" xmlns="http://www.w3.org/2000/svg">
<ellipse cx="309.812" cy="291.251" rx="28.1875" ry="29.7493" fill="url(#paint0_linear_31_64)"/>
<path d="M64.194 267.522L155.883 99.9131C157.51 96.938 161.304 95.8772 164.033 97.8907C188.343 115.829 187.615 144.669 183.78 158.104C183.667 158.501 183.509 158.87 183.312 159.232L168.856 185.731C166.675 189.73 169.569 194.605 174.123 194.605H215.421C218.735 194.605 221.421 197.291 221.421 200.605V226.168C221.421 241.551 206.984 247.089 199.765 247.936H136.95C134.772 247.936 132.765 249.116 131.706 251.019L95.6788 315.789C94.1062 318.616 90.5536 319.712 87.8088 318C63.792 303.02 61.4811 279.99 63.6234 269.06C63.7296 268.518 63.929 268.007 64.194 267.522Z" fill="url(#paint1_linear_31_64)"/>
<path d="M249.431 69.5127L311.404 232.506C312.586 235.614 311 239.124 307.809 240.059C269.711 251.22 249.336 225.059 243.765 209.842L184.274 57.608C183.125 54.6695 184.457 51.3078 187.4 50.1729C220.409 37.4467 242.024 56.7878 249.036 68.6829C249.194 68.9501 249.32 69.2228 249.431 69.5127Z" fill="url(#paint2_linear_31_64)"/>
<defs>
<linearGradient id="paint0_linear_31_64" x1="296.062" y1="253.52" x2="324.33" y2="319.942" gradientUnits="userSpaceOnUse">
<stop stop-color="#1E40AF"/>
<stop offset="1" stop-color="#ADCCFF"/>
</linearGradient>
<linearGradient id="paint1_linear_31_64" x1="142.211" y1="94.473" x2="142.211" y2="320.858" gradientUnits="userSpaceOnUse">
<stop stop-color="#3B82F6"/>
<stop offset="1" stop-color="#1E40AF"/>
</linearGradient>
<linearGradient id="paint2_linear_31_64" x1="247.89" y1="46" x2="247.89" y2="242.753" gradientUnits="userSpaceOnUse">
<stop stop-color="#3B82F6"/>
<stop offset="1" stop-color="#1E40AF"/>
</linearGradient>
</defs>
</svg>
